<svg width="98" height="89" viewBox="0 0 98 89" fill="none" xmlns="http://www.w3.org/2000/svg">
<path d="M82.4406 2.5H14.3861C7.82161 2.5 2.5 7.82161 2.5 14.3861V75.005C2.5 81.3535 7.64652 86.5 13.9951 86.5H84.0049C90.3535 86.5 95.5 81.3535 95.5 75.005V15.5594C95.5 8.34689 89.6531 2.5 82.4406 2.5Z" stroke="#570C59" stroke-width="5"/>
<path d="M38.1664 42.2198H21.6824C17.5174 42.2198 14.4953 39.3089 14.5034 35.2453C14.5112 31.3647 14.5323 25.9733 14.5664 18.7043C14.5728 17.3235 15.6944 16.2071 17.0723 16.2071H36.3931C39.2909 16.2071 41.64 18.5562 41.64 21.4541V38.7462C41.64 40.6646 40.0848 42.2198 38.1664 42.2198Z" stroke="#570C59" stroke-width="3"/>
<rect x="32.14" y="14.7071" width="17" height="24" fill="#E7E3E7"/>
<path d="M23.3722 33.9393C22.7864 34.5251 22.7864 35.4749 23.3722 36.0607C23.958 36.6464 24.9078 36.6464 25.4936 36.0607L23.3722 33.9393ZM49.9329 11C49.9329 10.1716 49.2613 9.5 48.4329 9.5H34.9329C34.1045 9.5 33.4329 10.1716 33.4329 11C33.4329 11.8284 34.1045 12.5 34.9329 12.5L46.9329 12.5L46.9329 24.5C46.9329 25.3284 47.6045 26 48.4329 26C49.2613 26 49.9329 25.3284 49.9329 24.5V11ZM25.4936 36.0607L49.4936 12.0607L47.3722 9.93934L23.3722 33.9393L25.4936 36.0607Z" fill="#570C59"/>
<line x1="12" y1="65.5" x2="68" y2="65.5" stroke="#570C59" stroke-width="3"/>
<line x1="12" y1="55.5" x2="80" y2="55.5" stroke="#570C59" stroke-width="3"/>
<line x1="12" y1="75.5" x2="56" y2="75.5" stroke="#570C59" stroke-width="3"/>
</svg>
